<svg xmlns="http://www.w3.org/2000/svg" viewBox="0 0 206.34 122.86"><defs><style>.cls-1{fill:#90cfa6;}.cls-2{fill:#b8dfc5;}.cls-3{fill:#f4c83b;}.cls-4{fill:none;stroke:#fff;stroke-miterlimit:10;}.cls-5{fill:#fff;}</style></defs><title>bg</title><g id="Layer_2" data-name="Layer 2"><g id="Layer_1-2" data-name="Layer 1"><rect class="cls-1" x="39.23" y="50.54" width="16.67" height="64.69" rx="8.33" ry="8.33" transform="translate(130.45 35.33) rotate(90)"/><rect class="cls-1" x="53.89" y="33.88" width="16.67" height="64.69" rx="8.33" ry="8.33" transform="translate(128.45 3.99) rotate(90)"/><rect class="cls-1" x="84.66" y="17.21" width="16.67" height="64.69" rx="8.33" ry="8.33" transform="translate(142.55 -43.44) rotate(90)"/><rect class="cls-1" x="71.58" y="67.21" width="16.67" height="64.69" rx="8.33" ry="8.33" transform="translate(179.47 19.65) rotate(90)"/><rect class="cls-1" x="86.24" y="50.54" width="16.67" height="64.69" rx="8.33" ry="8.33" transform="translate(177.47 -11.69) rotate(90)"/><rect class="cls-1" x="94.01" y="33.88" width="16.67" height="64.69" rx="8.33" ry="8.33" transform="translate(168.57 -36.12) rotate(90)"/><rect class="cls-1" x="115.34" y="0.54" width="16.67" height="64.69" rx="8.33" ry="8.33" transform="translate(156.57 -90.79) rotate(90)"/><rect class="cls-1" x="165.66" y="33.88" width="16.67" height="64.69" rx="8.33" ry="8.33" transform="translate(240.21 -107.77) rotate(90)"/><rect class="cls-2" x="46.73" y="8.34" width="11.93" height="11.93" transform="translate(5.32 41.45) rotate(-45)"/><rect class="cls-2" x="127.15" y="108.46" width="11.93" height="11.93" transform="translate(-41.93 127.64) rotate(-45)"/><rect class="cls-2" x="32.35" y="31.34" width="11.93" height="11.93" transform="translate(-15.15 38.02) rotate(-45)"/><circle class="cls-3" cx="10.02" cy="17.77" r="10.02"/><circle class="cls-4" cx="10.02" cy="17.77" r="7.75"/><path class="cls-5" d="M12.35,20.66a3.66,3.66,0,0,1-1.51.38v1.14H9.92V21a2.56,2.56,0,0,1-1.8-1,3.88,3.88,0,0,1-.59-2.29,4,4,0,0,1,.59-2.33,2.56,2.56,0,0,1,1.8-1v-1h.93v.95a4.21,4.21,0,0,1,1.66.39l-.41,1.1a4,4,0,0,0-1.46-.35A1.47,1.47,0,0,0,9.37,16,2.84,2.84,0,0,0,9,17.7a2.63,2.63,0,0,0,.42,1.66,1.49,1.49,0,0,0,1.23.52,3.84,3.84,0,0,0,.83-.09,5.3,5.3,0,0,0,.91-.3Z"/><circle class="cls-3" cx="80.97" cy="10.02" r="10.02"/><circle class="cls-4" cx="80.97" cy="10.02" r="7.75"/><path class="cls-5" d="M83.29,12.91a3.66,3.66,0,0,1-1.51.38v1.14h-.91V13.25a2.56,2.56,0,0,1-1.8-1A3.88,3.88,0,0,1,78.48,10a4,4,0,0,1,.59-2.33,2.56,2.56,0,0,1,1.8-1v-1h.93v.95A4.21,4.21,0,0,1,83.45,7L83,8.06a4,4,0,0,0-1.46-.35,1.47,1.47,0,0,0-1.27.56A2.84,2.84,0,0,0,79.9,10a2.63,2.63,0,0,0,.42,1.66,1.49,1.49,0,0,0,1.23.52,3.84,3.84,0,0,0,.83-.09,5.3,5.3,0,0,0,.91-.3Z"/><circle class="cls-3" cx="151.66" cy="91.22" r="10.02"/><circle class="cls-4" cx="151.66" cy="91.22" r="7.75"/><path class="cls-5" d="M154,94.11a3.66,3.66,0,0,1-1.51.38v1.14h-.91V94.45a2.56,2.56,0,0,1-1.8-1,3.88,3.88,0,0,1-.59-2.29,4,4,0,0,1,.59-2.33,2.56,2.56,0,0,1,1.8-1v-1h.93v.95a4.21,4.21,0,0,1,1.66.39l-.41,1.1a4,4,0,0,0-1.46-.35,1.47,1.47,0,0,0-1.27.56,2.84,2.84,0,0,0-.41,1.69,2.63,2.63,0,0,0,.42,1.66,1.49,1.49,0,0,0,1.23.52,3.84,3.84,0,0,0,.83-.09,5.3,5.3,0,0,0,.91-.3Z"/><circle class="cls-2" cx="27.07" cy="17.11" r="2.81"/><circle class="cls-2" cx="62.23" cy="31.98" r="2.81" transform="matrix(0.95, -0.3, 0.3, 0.95, -6.74, 20.19)"/><circle class="cls-2" cx="176.8" cy="91.54" r="2.81" transform="matrix(0.95, -0.3, 0.3, 0.95, -19.34, 57.4)"/></g></g></svg>