<svg xmlns="http://www.w3.org/2000/svg" viewBox="0 0 85.45 43.06"><defs><style>.cls-1{fill:#f4c83b;}.cls-2{fill:none;stroke:#fff;stroke-miterlimit:10;}.cls-3{fill:#fff;}.cls-4{fill:#b8dfc5;}</style></defs><title>Asset 4</title><g id="Layer_2" data-name="Layer 2"><g id="Layer_1-2" data-name="Layer 1"><circle class="cls-1" cx="10.02" cy="33.04" r="10.02"/><circle class="cls-2" cx="10.02" cy="33.04" r="7.75"/><path class="cls-3" d="M12.35,35.93a3.66,3.66,0,0,1-1.51.38v1.14H9.92V36.27a2.56,2.56,0,0,1-1.8-1A3.88,3.88,0,0,1,7.54,33a4,4,0,0,1,.59-2.33,2.56,2.56,0,0,1,1.8-1v-1h.93v.95a4.21,4.21,0,0,1,1.66.39l-.41,1.1a4,4,0,0,0-1.46-.35,1.47,1.47,0,0,0-1.27.56A2.84,2.84,0,0,0,9,33a2.63,2.63,0,0,0,.42,1.66,1.49,1.49,0,0,0,1.23.52,3.84,3.84,0,0,0,.83-.09,5.3,5.3,0,0,0,.91-.3Z"/><rect class="cls-4" x="49.19" y="4.08" width="11.93" height="11.93" transform="translate(9.06 41.94) rotate(-45)"/><rect class="cls-4" x="34.82" y="27.08" width="11.93" height="11.93" transform="translate(-11.42 38.52) rotate(-45)"/><circle class="cls-4" cx="29.54" cy="12.85" r="2.81"/><circle class="cls-4" cx="82.64" cy="2.81" r="2.81" transform="translate(2.98 24.98) rotate(-17.5)"/></g></g></svg>