<?xml version="1.0" encoding="UTF-8"?>
<svg width="428px" height="123px" viewBox="0 0 428 123" version="1.1" xmlns="http://www.w3.org/2000/svg" xmlns:xlink="http://www.w3.org/1999/xlink">
    <!-- Generator: Sketch 43.1 (39012) - http://www.bohemiancoding.com/sketch -->
    <title>bg</title>
    <desc>Created with Sketch.</desc>
    <defs></defs>
    <g id="Page-1" stroke="none" stroke-width="1" fill="none" fill-rule="evenodd">
        <g id="bg">
            <rect id="Rectangle-path" fill="#90CFA6" fill-rule="nonzero" transform="translate(283.225000, 66.215000) rotate(90.000000) translate(-283.225000, -66.215000) " x="274.89" y="33.87" width="16.67" height="64.69" rx="8.33"></rect>
            <rect id="Rectangle-path" fill="#90CFA6" fill-rule="nonzero" transform="translate(98.345000, 49.335000) rotate(90.000000) translate(-98.345000, -49.335000) " x="90.01" y="16.99" width="16.67" height="64.69" rx="8.33"></rect>
            <g id="Group-2" transform="translate(0.000000, 16.000000)">
                <circle id="Oval" fill="#F4C83B" fill-rule="nonzero" cx="10.02" cy="10.02" r="10.02"></circle>
                <circle id="Oval" stroke="#FFFFFF" cx="10" cy="10" r="8"></circle>
                <path d="M11.8165325,13.28 C11.3462814,13.5135068 10.8312954,13.6431059 10.3065325,13.66 L10.3065325,14.8 L9.3965325,14.8 L9.3965325,13.62 C8.68301313,13.5533 8.03011821,13.1905806 7.5965325,12.62 C7.1663717,11.936655 6.96012281,11.1361296 7.0065325,10.33 C6.95968745,9.5112144 7.16565497,8.69781723 7.5965325,8 C8.03011821,7.42941941 8.68301313,7.06670001 9.3965325,7 L9.3965325,6 L10.3265325,6 L10.3265325,6.95 C10.9006758,6.96540612 11.465595,7.0981281 11.9865325,7.34 L11.5765325,8.44 C11.1163193,8.23222731 10.620928,8.11346913 10.1165325,8.09 C9.62617693,8.05247505 9.14953976,8.26264577 8.8465325,8.65 C8.53651143,9.15660233 8.39312031,9.74765351 8.4365325,10.34 C8.38744098,10.9246922 8.53528023,11.5090092 8.8565325,12 C9.16155733,12.3576452 9.61746216,12.5503855 10.0865325,12.52 C10.3656478,12.520254 10.6439589,12.4900757 10.9165325,12.43 C11.2283016,12.3576808 11.5328793,12.2572706 11.8265325,12.13 L11.8165325,13.28 Z" id="Shape" fill="#FFFFFF" fill-rule="nonzero"></path>
            </g>
            <rect id="Rectangle-path" fill="#90CFA6" fill-rule="nonzero" transform="translate(149.345000, 49.335000) rotate(90.000000) translate(-149.345000, -49.335000) " x="141.01" y="16.99" width="16.67" height="64.69" rx="8.33"></rect>
            <rect id="Rectangle-path" fill="#90CFA6" fill-rule="nonzero" transform="translate(108.345000, 65.335000) rotate(90.000000) translate(-108.345000, -65.335000) " x="100.01" y="32.99" width="16.67" height="64.69" rx="8.33"></rect>
            <rect id="Rectangle-path" fill="#90CFA6" fill-rule="nonzero" transform="translate(141.345000, 81.335000) rotate(90.000000) translate(-141.345000, -81.335000) " x="133.01" y="48.99" width="16.67" height="64.69" rx="8.33"></rect>
            <rect id="Rectangle-path" fill="#64BA7D" fill-rule="nonzero" transform="translate(162.345000, 65.335000) rotate(90.000000) translate(-162.345000, -65.335000) " x="154.01" y="32.99" width="16.67" height="64.69" rx="8.33"></rect>
            <rect id="Rectangle-path" fill="#64BA7D" fill-rule="nonzero" transform="translate(345.671429, 50.335000) rotate(90.000000) translate(-345.671429, -50.335000) " x="337.336429" y="17.99" width="16.67" height="64.69" rx="8.33"></rect>
            <rect id="Rectangle-path" fill="#90CFA6" fill-rule="nonzero" transform="translate(300.915000, 98.565000) rotate(90.000000) translate(-300.915000, -98.565000) " x="292.58" y="66.22" width="16.67" height="64.69" rx="8.33"></rect>
            <rect id="Rectangle-path" fill="#90CFA6" fill-rule="nonzero" transform="translate(315.585000, 82.885000) rotate(90.000000) translate(-315.585000, -82.885000) " x="307.25" y="50.54" width="16.67" height="64.69" rx="8.33"></rect>
            <rect id="Rectangle-path" fill="#90CFA6" fill-rule="nonzero" transform="translate(323.345000, 66.225000) rotate(90.000000) translate(-323.345000, -66.225000) " x="315.01" y="33.88" width="16.67" height="64.69" rx="8.33"></rect>
            <rect id="Rectangle-path" fill="#64BA7D" fill-rule="nonzero" transform="translate(268.565000, 82.895000) rotate(90.000000) translate(-268.565000, -82.895000) " x="260.23" y="50.55" width="16.67" height="64.69" rx="8.33"></rect>
            <rect id="Rectangle-path" fill="#64BA7D" fill-rule="nonzero" transform="translate(128.345000, 34.335000) rotate(90.000000) translate(-128.345000, -34.335000) " x="120.01" y="1.99" width="16.67" height="64.69" rx="8.33"></rect>
            <rect id="Rectangle-path" fill="#64BA7D" fill-rule="nonzero" transform="translate(395.345000, 66.335000) rotate(90.000000) translate(-395.345000, -66.335000) " x="387.01" y="33.99" width="16.67" height="64.69" rx="8.33"></rect>
            <rect id="Rectangle-path" fill="#B8DFC5" fill-rule="nonzero" transform="translate(57.435784, 14.435784) rotate(-45.000000) translate(-57.435784, -14.435784) " x="51.4707839" y="8.4707839" width="11.93" height="11.93"></rect>
            <rect id="Rectangle-path" fill="#B8DFC5" fill-rule="nonzero" transform="translate(354.435784, 114.435784) rotate(-45.000000) translate(-354.435784, -114.435784) " x="348.470784" y="108.470784" width="11.93" height="11.93"></rect>
            <rect id="Rectangle-path" fill="#B8DFC5" fill-rule="nonzero" transform="translate(203.435784, 92.435784) rotate(-45.000000) translate(-203.435784, -92.435784) " x="197.470784" y="86.4707839" width="11.93" height="11.93"></rect>
            <rect id="Rectangle-path" fill="#B8DFC5" fill-rule="nonzero" transform="translate(43.435784, 37.435784) rotate(-45.000000) translate(-43.435784, -37.435784) " x="37.4707839" y="31.4707839" width="11.93" height="11.93"></rect>
            <circle id="Oval" fill="#F4C83B" fill-rule="nonzero" cx="86.02" cy="10.02" r="10.02"></circle>
            <ellipse id="Oval" stroke="#FFFFFF" cx="86" cy="10" rx="8" ry="8"></ellipse>
            <path d="M87.8165325,13.24 C87.3462814,13.4735068 86.8312954,13.6031059 86.3065325,13.62 L86.3065325,14.76 L85.3965325,14.76 L85.3965325,13.58 C84.6830131,13.5133 84.0301182,13.1505806 83.5965325,12.58 C83.17439,11.9079876 82.9684673,11.1226891 83.0065325,10.33 C82.9596875,9.5112144 83.165655,8.69781723 83.5965325,8 C84.0301182,7.42941941 84.6830131,7.06670001 85.3965325,7 L85.3965325,6 L86.3265325,6 L86.3265325,6.95 C86.8965914,6.96361782 87.4579425,7.09289868 87.9765325,7.33 L87.5265325,8.39 C87.0663193,8.18222731 86.570928,8.06346913 86.0665325,8.04 C85.5761769,8.00247505 85.0995398,8.21264577 84.7965325,8.6 C84.492152,9.12256457 84.3625272,9.72864772 84.4265325,10.33 C84.377441,10.9146922 84.5252802,11.4990092 84.8465325,11.99 C85.1515573,12.3476452 85.6074622,12.5403855 86.0765325,12.51 C86.3556478,12.510254 86.6339589,12.4800757 86.9065325,12.42 C87.2183016,12.3476808 87.5228793,12.2472706 87.8165325,12.12 L87.8165325,13.24 Z" id="Shape" fill="#FFFFFF" fill-rule="nonzero"></path>
            <circle id="Oval" fill="#F4C83B" fill-rule="nonzero" cx="373.02" cy="91.02" r="10.02"></circle>
            <circle id="Oval" stroke="#FFFFFF" cx="373" cy="91" r="8"></circle>
            <path d="M375,94.11 C374.529749,94.3435068 374.014763,94.4731059 373.49,94.49 L373.49,95.63 L372.58,95.63 L372.58,94.45 C371.866481,94.3833 371.213586,94.0205806 370.78,93.45 C370.349839,92.766655 370.14359,91.9661296 370.19,91.16 C370.143155,90.3412144 370.349122,89.5278172 370.78,88.83 C371.213586,88.2594194 371.866481,87.8967 372.58,87.83 L372.58,86.83 L373.51,86.83 L373.51,87.78 C374.084143,87.7954061 374.649063,87.9281281 375.17,88.17 L374.76,89.27 C374.299787,89.0622273 373.804396,88.9434691 373.3,88.92 C372.809644,88.8824751 372.333007,89.0926458 372.03,89.48 C371.719979,89.9866023 371.576588,90.5776535 371.62,91.17 C371.570908,91.7546922 371.718748,92.3390092 372.04,92.83 C372.345025,93.1876452 372.80093,93.3803855 373.27,93.35 C373.549115,93.350254 373.827426,93.3200757 374.1,93.26 C374.411769,93.1876808 374.716347,93.0872706 375.01,92.96 L375,94.11 Z" id="Shape" fill="#FFFFFF" fill-rule="nonzero"></path>
            <circle id="Oval" fill="#B8DFC5" fill-rule="nonzero" cx="31.81" cy="16.81" r="2.81"></circle>
            <ellipse id="Oval" fill="#B8DFC5" fill-rule="nonzero" transform="translate(66.512500, 31.512500) rotate(-17.525568) translate(-66.512500, -31.512500) " cx="66.5125" cy="31.5125" rx="2.79944267" ry="2.79944267"></ellipse>
            <circle id="Oval" fill="#B8DFC5" fill-rule="nonzero" transform="translate(397.512500, 91.512500) rotate(-17.525568) translate(-397.512500, -91.512500) " cx="397.5125" cy="91.5125" r="2.79944267"></circle>
            <ellipse id="Oval" fill="#B8DFC5" fill-rule="nonzero" transform="translate(232.512500, 58.512500) rotate(-17.525568) translate(-232.512500, -58.512500) " cx="232.5125" cy="58.5125" rx="2.79944267" ry="2.79944267"></ellipse>
        </g>
    </g>
</svg>