<svg xmlns="http://www.w3.org/2000/svg" viewBox="0 0 427.26 101.14"><defs><style>.cls-1{fill:#f4c83b;}.cls-2{fill:none;stroke:#fff;stroke-miterlimit:10;}.cls-3{fill:#fff;}.cls-4{fill:#90cfa6;}.cls-5{fill:#65bb7e;}.cls-6{fill:#b8dfc5;}</style></defs><title>logo</title><g id="Layer_2" data-name="Layer 2"><g id="Layer_1-2" data-name="Layer 1"><circle class="cls-1" cx="10.02" cy="33.04" r="10.02"/><circle class="cls-2" cx="10.02" cy="33.04" r="7.75"/><path class="cls-3" d="M12.35,35.93a3.66,3.66,0,0,1-1.51.38v1.14H9.92V36.27a2.56,2.56,0,0,1-1.8-1A3.88,3.88,0,0,1,7.54,33a4,4,0,0,1,.59-2.33,2.56,2.56,0,0,1,1.8-1v-1h.93v.95a4.21,4.21,0,0,1,1.66.39l-.41,1.1a4,4,0,0,0-1.46-.35,1.47,1.47,0,0,0-1.27.56A2.84,2.84,0,0,0,9,33a2.63,2.63,0,0,0,.42,1.66,1.49,1.49,0,0,0,1.23.52,3.84,3.84,0,0,0,.83-.09,5.3,5.3,0,0,0,.91-.3Z"/><path class="cls-4" d="M63.26,25c0,23.18-.1,46.55,1.75,69.67.38,4.8,6.62,7,9.32,2.52,13.59-22.45,22.73-47.28,36.43-69.67L101.43,25c.73,23.68,2,47.44,4.51,71,.46,4.25,7.13,7.64,9.32,2.52,6.41-15,12-30.44,19.55-44.91C140.74,42.37,148.7,28,161.88,24.12c5.42-1.6,12.08-1.81,17.34.48,6,2.6,7.55,9.17,7.15,15.16-.43,6.62-3.31,14.12-8.29,18.65-4.73,4.3-11.87,5.25-16.15-.12-4-5-11,2.08-7.07,7.07,9,11.24,25.38,6.85,33.19-3.15s11.61-26.07,5.13-37.77C186.84,13,171.41,11.16,159.83,14.31,146.39,18,137.27,29.66,130.42,41.05c-9.93,16.5-16.26,34.83-23.79,52.47L115.95,96c-2.54-23.56-3.78-47.32-4.51-71a5,5,0,0,0-9.32-2.52C88.42,44.9,79.28,69.74,65.69,92.19L75,94.71C73.16,71.59,73.26,48.23,73.26,25c0-6.43-10-6.45-10,0Z"/><path class="cls-5" d="M111.43,25l-3.87,8s-3.71,6.69-5.53,9.4c.25,4.82.28,4,.45,8.8,0,0,4.41-5.28,5.44-7,2.39-3.91,4-6.58,4-6.58S111.55,28.87,111.43,25Z"/><path class="cls-4" d="M180.94,47.82C171.67,37,155,36.93,144.85,46.52c-10.69,10.1-11.82,27.68-2.41,39,9.65,11.58,26.65,12.14,37.5,2,11.69-10.93,10.81-28,1-39.67-4.15-4.93-11.19,2.18-7.07,7.07,6.2,7.37,6.57,18-.47,25a15.67,15.67,0,0,1-23.94-1.63c-5.4-7.27-4.35-17.85,2-24.2a15.09,15.09,0,0,1,22.45.8c4.2,4.89,11.24-2.21,7.07-7.07Z"/><path class="cls-4" d="M210,44.42a30.27,30.27,0,0,0-4.22,9.82c-.93,3.94,2.39,6.82,6.15,6.15,2-.36,7.86-2.57,9.63-1.32s0,4.63-.53,6.74c-1.84,6.93-3.86,15-1.83,22.08,1.64,5.73,6.54,9.9,12.63,9.66,6.87-.27,13.93-6.56,17.94-11.63s-3.09-12.12-7.07-7.07c-2.8,3.56-13.18,14.33-14.24,4.25-.69-6.58,2.21-13,3.41-19.29,1-5.14.35-10.72-4.75-13.42-5.46-2.89-12.2-.64-17.85.36l6.15,6.15a22.32,22.32,0,0,1,3.21-7.43c3.55-5.39-5.11-10.41-8.63-5Z"/><path class="cls-4" d="M169.2,87c1.19,5.86,7.53,8.81,12.95,9.6,6.91,1,12.46-2.79,16.73-7.89,9.44-11.28,12.64-26.52,19.74-39.19,3.15-5.62-5.48-10.67-8.63-5-5.13,9.15-8.25,19-12.86,28.39A40.69,40.69,0,0,1,190,83.73c-1.91,1.93-3.77,3.41-6.63,3-1.32-.18-4.19-.92-4.48-2.37-1.28-6.3-10.92-3.64-9.64,2.66Z"/><path class="cls-4" d="M264.13,15.45c-6.72,8.86-11.3,19-14.7,29.56-3.31,10.26-7.36,22.33-7,33.21.29,9.28,5.78,19.15,15.8,20.25,9.11,1,18.23-6.1,24.46-12.06,4.66-4.46-2.42-11.52-7.07-7.07-3.8,3.63-12.66,11.59-18.35,8.6-7.66-4-4.47-15.8-3-22.28,3.68-16,8.44-31.88,18.51-45.16,3.89-5.13-4.79-10.11-8.63-5Z"/><path class="cls-4" d="M298.87,15.67c-14.78,23.23-20.2,49.95-24.56,76.74-1,6.3,8.61,9,9.64,2.66,4.23-25.94,9.23-51.84,23.56-74.35,3.47-5.45-5.19-10.47-8.63-5Z"/><path class="cls-4" d="M285.16,82.61c8.07-6.94,12.88-16.93,21.69-23.09.45-.32,3.52-2.33,4.34-1.64.31.26-.11,1.9-.16,2.21a33,33,0,0,1-2.1,6.32c-1.89,4.76-4.54,9.45-5,14.63-.85,8.77,4.63,17.48,13.72,18.32,10.64,1,17.31-5.39,23.06-13.5,3.73-5.26-4.94-10.26-8.63-5-2.91,4.1-5.89,8.12-11.23,8.62-4.75.44-7.55-2.86-7-7.69,1-8.83,9.26-16.58,7.12-26-2.37-10.39-14.88-8.42-21.15-3.32-8.36,6.8-13.58,16.13-21.69,23.09-4.89,4.2,2.21,11.25,7.07,7.07Z"/><path class="cls-5" d="M188,62.31a34.73,34.73,0,0,1-9.48,7.44A20.37,20.37,0,0,1,177.25,74a18.65,18.65,0,0,1-1.15,2.47,44.77,44.77,0,0,0,12.38-7.65A27.7,27.7,0,0,0,188,62.31Z"/><path class="cls-5" d="M222,49a14.2,14.2,0,0,0-3.13,0,121.5,121.5,0,0,0-5.55,11.64,3.25,3.25,0,0,1,1.45-1.06,19.29,19.29,0,0,1,4.81-.85,92.85,92.85,0,0,1,5.06-9.23A14.3,14.3,0,0,0,222,49Z"/><path class="cls-4" d="M407.21,14.67c-6.72,8.86-11.3,19-14.7,29.56-3.31,10.26-7.36,22.33-7,33.21.29,9.28,5.78,19.15,15.8,20.25,9.11,1,18.23-6.1,24.46-12.06,4.66-4.46-2.42-11.52-7.07-7.07-3.8,3.63-12.66,11.59-18.35,8.6-7.66-4-4.47-15.8-3-22.28,3.68-16,8.44-31.88,18.51-45.16,3.89-5.13-4.79-10.11-8.63-5Z"/><path class="cls-5" d="M280,86.66c-1.79,1.84-3.52,4.2-5.71,5.64a5,5,0,0,0,1.3,4.5,28.32,28.32,0,0,0,6-4.83L285,88.51c.66-2.84,1.15-5.24,1.7-8.1C284.44,82.77,282.31,84.3,280,86.66Z"/><path class="cls-5" d="M181.36,48.14c-.65-.68-1.81-1.73-2.26-2.19-.07.26.06,1.59,0,1.91a8.57,8.57,0,0,1-2.15,4.64A20.15,20.15,0,0,1,174,55.05a22.52,22.52,0,0,1,2.81,4.38,14.85,14.85,0,0,0,3.11-2.7A21.18,21.18,0,0,0,183.45,51,14.63,14.63,0,0,0,181.36,48.14Z"/><path class="cls-4" d="M364.84,42.55a87.83,87.83,0,0,0-8.6,24.61c-1.42,7.84-2.75,17,1.65,24.15,3.93,6.42,11.6,8.54,18.6,6.37,7.59-2.35,12.31-9,16.44-15.39,3.52-5.41-5.13-10.43-8.63-5-2.61,4-5.63,9.18-10.47,10.8-6.4,2.15-8.88-3.4-8.93-8.87-.08-10.82,3.67-22.07,8.57-31.58,2.95-5.71-5.68-10.77-8.63-5Z"/><path class="cls-4" d="M378.84,26.54c6.43,0,6.45-10,0-10s-6.45,10,0,10Z"/><path class="cls-4" d="M239.65,55q17.66-.25,35.32.26c6.44.19,6.43-9.81,0-10q-17.66-.51-35.32-.26c-6.43.09-6.45,10.09,0,10Z"/><path class="cls-4" d="M382.88,55q17.66-.25,35.32.26c6.44.19,6.43-9.81,0-10q-17.66-.51-35.32-.26c-6.43.09-6.45,10.09,0,10Z"/><path class="cls-5" d="M256.93,54.93c-3.62-.12-7-.08-10.63,0-.4,1.71-.92,3.63-1.49,5.29,3.76-.14,7-.16,10.75-.06C255.93,58.53,256.6,56.59,256.93,54.93Z"/><path class="cls-5" d="M399.79,55a92.35,92.35,0,0,0-10.65,0c-.37,1.67-1,3.25-1.45,5.36a96.43,96.43,0,0,1,10.73,0C399,58.55,399.38,56.6,399.79,55Z"/><path class="cls-5" d="M384.92,92.58a29.34,29.34,0,0,0,2.54-2.77c.29-.42.76-.74,1-1.17a21.69,21.69,0,0,1-3-12.67h0a12.48,12.48,0,0,0-2,2.54c-.91,1.37-1.76,2.74-2.78,4a26.91,26.91,0,0,0,4,9.8A1.28,1.28,0,0,0,384.92,92.58Z"/><rect class="cls-6" x="49.19" y="4.08" width="11.93" height="11.93" transform="translate(9.06 41.94) rotate(-45)"/><rect class="cls-6" x="34.82" y="27.08" width="11.93" height="11.93" transform="translate(-11.42 38.52) rotate(-45)"/><circle class="cls-6" cx="29.54" cy="12.85" r="2.81"/><circle class="cls-6" cx="82.64" cy="2.81" r="2.81" transform="translate(2.98 24.98) rotate(-17.5)"/></g></g></svg>