<svg xmlns="http://www.w3.org/2000/svg" viewBox="0 0 130.95 31.87"><defs><style>.cls-1{fill:#90cfa6;}.cls-2{fill:#65bb7e;}</style></defs><title>logo-text</title><g id="Layer_2" data-name="Layer 2"><g id="Layer_1-2" data-name="Layer 1"><path class="cls-1" d="M0,4.49c0,8.34,0,16.75.63,25.06A1.81,1.81,0,0,0,4,30.46c4.89-8.08,8.18-17,13.1-25.06l-3.35-.91C14,13,14.44,21.56,15.36,30c.16,1.53,2.57,2.75,3.35.91,2.31-5.4,4.3-11,7-16.16,2.13-4.06,5-9.22,9.74-10.62a9.52,9.52,0,0,1,6.24.17c2.14.94,2.71,3.3,2.57,5.45a10.31,10.31,0,0,1-3,6.71c-1.7,1.55-4.27,1.89-5.81,0S31.53,17.2,33,19c3.22,4,9.13,2.46,11.94-1.13s4.18-9.38,1.85-13.59S38.91-.5,34.74.63c-4.84,1.32-8.12,5.52-10.58,9.62-3.57,5.94-5.85,12.53-8.56,18.88L19,30C18,21.56,17.6,13,17.33,4.49A1.81,1.81,0,0,0,14,3.58c-4.93,8.05-8.22,17-13.1,25.06l3.35.91C3.56,21.24,3.6,12.83,3.6,4.49a1.8,1.8,0,0,0-3.6,0Z"/><path class="cls-2" d="M17.33,4.49,15.94,7.35s-1.34,2.41-2,3.38c.09,1.74.1,1.43.16,3.17,0,0,1.59-1.9,2-2.5C16.93,10,17.5,9,17.5,9S17.37,5.87,17.33,4.49Z"/><path class="cls-1" d="M42.34,12.69a9,9,0,0,0-13-.47,10.44,10.44,0,0,0-.87,14A9.24,9.24,0,0,0,42,27c4.21-3.93,3.89-10.08.36-14.27-1.49-1.77-4,.78-2.54,2.54a6.57,6.57,0,0,1-.17,9A5.64,5.64,0,0,1,31,23.65a6.81,6.81,0,0,1,.71-8.71,5.43,5.43,0,0,1,8.08.29c1.51,1.76,4-.79,2.54-2.54Z"/><path class="cls-1" d="M52.78,11.46A10.89,10.89,0,0,0,51.26,15a1.82,1.82,0,0,0,2.21,2.21c.73-.13,2.83-.92,3.46-.47s0,1.66-.19,2.42c-.66,2.49-1.39,5.38-.66,7.94a4.57,4.57,0,0,0,4.54,3.48c2.47-.1,5-2.36,6.45-4.18S66,22,64.54,23.85c-1,1.28-4.74,5.16-5.12,1.53-.25-2.37.8-4.66,1.23-6.94.35-1.85.12-3.86-1.71-4.83s-4.39-.23-6.42.13l2.21,2.21a8,8,0,0,1,1.16-2.67c1.28-1.94-1.84-3.74-3.11-1.82Z"/><path class="cls-1" d="M38.11,26.79c.43,2.11,2.71,3.17,4.66,3.45,2.49.36,4.48-1,6-2.84,3.4-4.06,4.55-9.54,7.1-14.1,1.13-2-2-3.84-3.11-1.82-1.85,3.29-3,6.85-4.63,10.21a14.64,14.64,0,0,1-2.58,3.9,2.72,2.72,0,0,1-2.39,1.09c-.48-.06-1.51-.33-1.61-.85-.46-2.27-3.93-1.31-3.47,1Z"/><path class="cls-1" d="M72.27,1A35.33,35.33,0,0,0,67,11.67c-1.19,3.69-2.65,8-2.53,11.95.1,3.34,2.08,6.89,5.68,7.28,3.28.36,6.56-2.19,8.8-4.34,1.68-1.6-.87-4.15-2.54-2.54-1.37,1.31-4.56,4.17-6.6,3.09-2.76-1.45-1.61-5.69-1.07-8,1.32-5.77,3-11.47,6.66-16.25C76.77,1,73.65-.78,72.27,1Z"/><path class="cls-1" d="M84.76,1.12c-5.32,8.36-7.27,18-8.84,27.61C75.56,31,79,32,79.4,29.68,80.92,20.35,82.72,11,87.87,2.93,89.12,1,86-.83,84.76,1.12Z"/><path class="cls-1" d="M79.83,25.2c2.9-2.5,4.63-6.09,7.8-8.31.16-.11,1.27-.84,1.56-.59.11.09,0,.68-.06.79a11.88,11.88,0,0,1-.76,2.27c-.68,1.71-1.63,3.4-1.81,5.26-.3,3.15,1.67,6.29,4.94,6.59,3.83.36,6.23-1.94,8.3-4.86,1.34-1.89-1.78-3.69-3.11-1.82-1,1.48-2.12,2.92-4,3.1-1.71.16-2.72-1-2.52-2.77.36-3.18,3.33-6,2.56-9.34-.85-3.74-5.35-3-7.61-1.19-3,2.45-4.89,5.8-7.8,8.31-1.76,1.51.8,4,2.54,2.54Z"/><path class="cls-2" d="M44.86,17.9a12.5,12.5,0,0,1-3.41,2.67A7.33,7.33,0,0,1,41,22.11a6.71,6.71,0,0,1-.41.89A16.11,16.11,0,0,0,45,20.25,10,10,0,0,0,44.86,17.9Z"/><path class="cls-2" d="M57.12,13.11a5.11,5.11,0,0,0-1.13,0,43.71,43.71,0,0,0-2,4.19,1.17,1.17,0,0,1,.52-.38,6.94,6.94,0,0,1,1.73-.31,33.4,33.4,0,0,1,1.82-3.32A5.14,5.14,0,0,0,57.12,13.11Z"/><path class="cls-1" d="M123.74.76a35.33,35.33,0,0,0-5.29,10.63c-1.19,3.69-2.65,8-2.53,11.95.1,3.34,2.08,6.89,5.68,7.28,3.28.36,6.56-2.19,8.8-4.34,1.68-1.6-.87-4.15-2.54-2.54-1.37,1.31-4.56,4.17-6.6,3.09-2.76-1.45-1.61-5.69-1.07-8,1.32-5.77,3-11.47,6.66-16.25,1.4-1.84-1.72-3.64-3.11-1.82Z"/><path class="cls-2" d="M78,26.66a13.75,13.75,0,0,1-2.05,2,1.79,1.79,0,0,0,.47,1.62,10.19,10.19,0,0,0,2.18-1.74l1.21-1.25c.24-1,.41-1.89.61-2.92C79.57,25.26,78.81,25.81,78,26.66Z"/><path class="cls-2" d="M42.49,12.8c-.23-.24-.65-.62-.81-.79,0,.09,0,.57,0,.69a3.08,3.08,0,0,1-.77,1.67,7.25,7.25,0,0,1-1.05.92,8.1,8.1,0,0,1,1,1.57,5.34,5.34,0,0,0,1.12-1,7.62,7.62,0,0,0,1.27-2.08A5.26,5.26,0,0,0,42.49,12.8Z"/><path class="cls-1" d="M108.5,10.79a31.6,31.6,0,0,0-3.09,8.85c-.51,2.82-1,6.11.59,8.69a5.7,5.7,0,0,0,6.69,2.29c2.73-.85,4.43-3.25,5.92-5.54,1.27-1.95-1.85-3.75-3.11-1.82-.94,1.44-2,3.3-3.77,3.88-2.3.77-3.2-1.22-3.21-3.19a25.23,25.23,0,0,1,3.08-11.36c1.06-2.05-2-3.88-3.11-1.82Z"/><path class="cls-1" d="M113.53,5a1.8,1.8,0,0,0,0-3.6,1.8,1.8,0,0,0,0,3.6Z"/><path class="cls-1" d="M63.46,15.27q6.35-.09,12.71.09c2.32.07,2.31-3.53,0-3.6q-6.35-.18-12.71-.09c-2.31,0-2.32,3.63,0,3.6Z"/><path class="cls-1" d="M115,15.27q6.35-.09,12.71.09c2.32.07,2.31-3.53,0-3.6q-6.35-.18-12.71-.09c-2.31,0-2.32,3.63,0,3.6Z"/><path class="cls-2" d="M69.68,15.25c-1.3,0-2.52,0-3.82,0-.15.61-.33,1.3-.54,1.9,1.35-.05,2.52-.06,3.87,0C69.31,16.54,69.56,15.84,69.68,15.25Z"/><path class="cls-2" d="M121.07,15.25a33.22,33.22,0,0,0-3.83,0c-.13.6-.37,1.17-.52,1.93a34.69,34.69,0,0,1,3.86,0C120.77,16.55,120.92,15.84,121.07,15.25Z"/><path class="cls-2" d="M115.72,28.79a10.55,10.55,0,0,0,.91-1c.1-.15.27-.27.37-.42a7.8,7.8,0,0,1-1.09-4.56h0a4.49,4.49,0,0,0-.71.91c-.33.49-.63,1-1,1.46a9.68,9.68,0,0,0,1.45,3.53Z"/></g></g></svg>